<svg viewBox="0 0 241.7 241.7" xmlns="http://www.w3.org/2000/svg"><g transform="translate(-6.8 -7.18)"><path d="m248.5 130c0 1.36 0 2.72-.07 4.07a118.88 118.88 0 0 1 -67.07 103 114.62 114.62 0 0 1 -10.69 4.54c-2.57.94-5.17 1.81-7.81 2.58a118.9 118.9 0 1 1 84.36-131.69c.11.74.22 1.49.31 2.24a118.07 118.07 0 0 1 .97 15.26z" fill="#166baa"/><path d="m244.57 126.06c0 1.37 0 2.73-.07 4.08a118.88 118.88 0 0 1 -67.07 103 116 116 0 0 1 -10.7 4.55l-.75.27c-2.33.84-4.67 1.61-7.06 2.3a118.89 118.89 0 1 1 83.68-135.82c.26 1.36.49 2.74.69 4.12.1.75.21 1.5.3 2.25 0 .21.06.43.08.65a117.16 117.16 0 0 1 .9 14.6z" fill="#1c8adb"/><path d="m244.57 126.06c0 1.37 0 2.73-.07 4.08a118.88 118.88 0 0 1 -67.07 103 116 116 0 0 1 -10.7 4.55l-.75.27-106.09-82.84 35.18-37.12 45.13-24.55 25.23-24.3 16.68-10 60.49 45.26c.26 1.36.49 2.74.69 4.12.1.75.21 1.5.3 2.25 0 .21.06.43.08.65a117.16 117.16 0 0 1 .9 14.63z" opacity=".35"/><path d="m164.74 211.15a26.82 26.82 0 0 1 -26.67-29.65l-48.58-28.05a26.83 26.83 0 1 1 -.28-43.17l48.79-28.19c-.07-.83-.11-1.66-.11-2.49a26.8 26.8 0 1 1 11.11 21.72l-48.86 28.21c.08.81.11 1.62.11 2.43s0 1.4-.08 2.1l49.12 28.35a26.82 26.82 0 1 1 15.46 48.74z"/><path d="m164.74 162.4a21.87 21.87 0 0 0 -15 5.93l-54.89-31.69a22.52 22.52 0 0 0 .5-4.68 22.19 22.19 0 0 0 -.57-5l54.73-31.6a21.94 21.94 0 1 0 -6.11-10.73l-54.71 31.6a21.93 21.93 0 1 0 .23 31.24l54.56 31.53a21.51 21.51 0 0 0 -.67 5.36 21.93 21.93 0 1 0 21.93-21.93z" fill="#fff"/></g></svg>